<svg xmlns="http://www.w3.org/2000/svg" id="svg1" width="155.875" height="15.4152" version="1.1" viewBox="0 0 155.875 15.4152"><defs id="defs1"><style id="style1">.cls-6,.cls-7{stroke-width:3px}.cls-6{stroke:#161618;fill:#36363a}.cls-7{fill:#77778d;stroke:#171717;stroke-linecap:round}</style></defs><path id="rect1-5" d="M3.532 13.898c1.114 0 2.025-.24 2.025-.48V1.997c0-.24-.911-.481-2.025-.481s-2.026.24-2.026.48v11.42c0 .241.912.481 2.026.481z" class="cls-6" style="fill:#424447;fill-opacity:1;stroke:#252628;stroke-width:3.01225px;stroke-opacity:1"/><path id="path47-7" d="M144.037 3.726h9.858l.003 8.007h-9.86z" style="fill:#333;fill-opacity:1;stroke:#202123;stroke-width:3.928;stroke-linecap:butt;stroke-linejoin:round;stroke-miterlimit:2.6;stroke-dasharray:none;stroke-dashoffset:0;stroke-opacity:1;paint-order:normal"/><path id="path23" d="M5.545 1.856v11.756h10.196V1.856Z" style="fill:#424447;fill-opacity:1;stroke:#252628;stroke-width:3.64086;stroke-linecap:butt;stroke-linejoin:round;stroke-miterlimit:2.6;stroke-dasharray:none;stroke-dashoffset:0;stroke-opacity:1;paint-order:normal"/><path id="path39" d="M17.645 1.991h128.266v11.47H17.645Z" style="fill:#424447;fill-opacity:1;stroke:#252628;stroke-width:3.928;stroke-linecap:butt;stroke-linejoin:round;stroke-miterlimit:2.6;stroke-dasharray:none;stroke-dashoffset:0;stroke-opacity:1;paint-order:normal"/><path id="path39-1" d="M70.87 1.728h35.846V13.74H70.87Z" style="fill:#4b4e51;fill-opacity:1;stroke:#323336;stroke-width:3.18858;stroke-linecap:butt;stroke-linejoin:round;stroke-miterlimit:2.6;stroke-dasharray:none;stroke-dashoffset:0;stroke-opacity:1;paint-order:normal"/><path id="path42" d="M70.87 5.5v3.938l15.632.062v-4Z" style="fill:#4b4e51;fill-opacity:1;stroke:#323336;stroke-width:1.097;stroke-linecap:butt;stroke-linejoin:round;stroke-miterlimit:2.6;stroke-dasharray:none;stroke-dashoffset:0;stroke-opacity:1;paint-order:normal"/><path id="path46" d="M71.416 7.5h15.086" style="fill:#565a5d;fill-opacity:1;stroke:#3a3c3f;stroke-width:1.097;stroke-linecap:butt;stroke-linejoin:round;stroke-miterlimit:2.6;stroke-dasharray:none;stroke-dashoffset:0;stroke-opacity:1;paint-order:normal"/><path id="path43" d="M86.502 1.944V13.74l20.214-.114V2.058Z" style="fill:#565a5d;fill-opacity:1;stroke:#3a3c3f;stroke-width:1.097;stroke-linecap:butt;stroke-linejoin:round;stroke-miterlimit:2.6;stroke-dasharray:none;stroke-dashoffset:0;stroke-opacity:1;paint-order:normal"/><path id="path45" d="m98.739 2.828 9.572.708v8.656l-9.572.664z" style="fill:#565a5d;fill-opacity:1;stroke:#3a3c3f;stroke-width:1.097;stroke-linecap:butt;stroke-linejoin:round;stroke-miterlimit:2.6;stroke-dasharray:none;stroke-dashoffset:0;stroke-opacity:1;paint-order:normal"/><path id="path44" d="M88.793 13.74V1.728h9.946V13.74z" style="fill:#484b4e;fill-opacity:1;stroke:#323336;stroke-width:1.097;stroke-linecap:butt;stroke-linejoin:round;stroke-miterlimit:2.6;stroke-dasharray:none;stroke-dashoffset:0;stroke-opacity:1;paint-order:normal"/><g id="g46" style="stroke-width:1.1;stroke-dasharray:none" transform="matrix(.64703 0 0 1.18732 41.74 -55.395)"><path id="path156-2" d="M104.28 54.702v-3.104c0-.4.489-1.102 1.37-1.102h31.813c1.174 0 2.349.601 2.545 1.502.195.501.195 1.002.195 1.302s0 .801-.195 1.202c-.196.8-1.175 1.502-2.545 1.502H105.65c-.881 0-1.37-.5-1.37-1.302z" class="cls-6" style="fill:#36383b;fill-opacity:1;stroke:#202123;stroke-width:1.08907;stroke-miterlimit:12.06;stroke-dasharray:none;stroke-opacity:1"/><path id="rect19" d="M105 51.2h2.8v4.1H105z" class="cls-7" style="fill:#333;fill-opacity:1;stroke:#202123;stroke-width:1.1;stroke-dasharray:none;stroke-opacity:1"/><path id="rect21-6" d="M131.1 51.2h2.8v4.1h-2.8z" class="cls-7" style="fill:#333;fill-opacity:1;stroke:#202123;stroke-width:1.1;stroke-dasharray:none;stroke-opacity:1"/><path id="rect23" d="M125.8 51.2h2.8v4.1h-2.8z" class="cls-7" style="fill:#333;fill-opacity:1;stroke:#202123;stroke-width:1.1;stroke-dasharray:none;stroke-opacity:1"/><path id="rect25" d="M120.6 51.2h2.8v4.1h-2.8z" class="cls-7" style="fill:#333;fill-opacity:1;stroke:#202123;stroke-width:1.1;stroke-dasharray:none;stroke-opacity:1"/><path id="rect27" d="M115.4 51.2h2.8v4.1h-2.8z" class="cls-7" style="fill:#333;fill-opacity:1;stroke:#202123;stroke-width:1.1;stroke-dasharray:none;stroke-opacity:1"/><path id="rect29" d="M110.2 51.2h2.8v4.1h-2.8z" class="cls-7" style="fill:#333;fill-opacity:1;stroke:#202123;stroke-width:1.1;stroke-dasharray:none;stroke-opacity:1"/><path id="rect31" d="M136.3 51.2h2.8v4.1h-2.8z" class="cls-7" style="fill:#333;fill-opacity:1;stroke:#202123;stroke-width:1.1;stroke-dasharray:none;stroke-opacity:1"/></g><path id="path47" d="M135.252 6.126h10.256l.003 3.207h-10.26z" style="fill:#333;fill-opacity:1;stroke:#202123;stroke-width:.726364;stroke-linecap:butt;stroke-linejoin:round;stroke-miterlimit:2.6;stroke-dasharray:none;stroke-dashoffset:0;stroke-opacity:1;paint-order:normal"/></svg>