<svg xmlns="http://www.w3.org/2000/svg" xml:space="preserve" width="110" height="110" viewBox="0 0 29.104169 29.104168"><defs><marker id="a" markerHeight="0.40000001" markerWidth="0.40000001" orient="auto-start-reverse" preserveAspectRatio="xMidYMid" refX="0" refY="0" style="overflow:visible" viewBox="0 0 1 1"><path d="M-.211-4.106 6.21-.894a1 1 90 0 1 0 1.788L-.21 4.106A1.236 1.236 31.717 0 1-2 3v-6A1.236 1.236 148.283 0 1-.211-4.106" style="fill:context-stroke;fill-rule:evenodd;stroke:none" transform="scale(.7)"/></marker><marker id="b" markerHeight="0.40000001" markerWidth="0.40000001" orient="auto-start-reverse" preserveAspectRatio="xMidYMid" refX="0" refY="0" style="overflow:visible" viewBox="0 0 1 1"><path d="M-.211-4.106 6.21-.894a1 1 90 0 1 0 1.788L-.21 4.106A1.236 1.236 31.717 0 1-2 3v-6A1.236 1.236 148.283 0 1-.211-4.106" style="fill:context-stroke;fill-rule:evenodd;stroke:none" transform="scale(.7)"/></marker></defs><g style="display:inline" transform="rotate(-30 -70.135 22.297)scale(.27474)"><path d="m50.605 201.367-.322-7.104H33.35l-.15-.58h-1.396l-1.695 2.147h-8.026s-.763.975-.816 1.974c-.062 1.186 0 3.563 0 3.563h5.215s-.089-2.36.137-3.848c.161-1.066 2.062-1.174 2.062-1.174h18.35s.654.177.91.384c.212.17.47.667.47.667v3.97z" style="display:inline;opacity:1;fill:#434546;fill-opacity:1;stroke:#313335;stroke-width:.911719;stroke-dasharray:none;stroke-opacity:1"/><path d="M-26.531 201.98s-2.406-.297-3.252.394c-.396.324-.54.948-.485 1.457.295 2.771.698 5.69.425 8.642-.362 3.902-1.126 7.777-2.125 11.91-.044.181.242.347.341.444.15.145.266.256.418.218 1.84-.46 6.102-1.23 6.102-1.23l-1.295-11.28z" style="opacity:1;fill:#3d3d3d;fill-opacity:1;stroke:#333;stroke-width:1.0715;stroke-dasharray:none;stroke-opacity:1"/><path d="M18.466 214.218s.378 5.372.828 8.004a111 111 0 0 0 2.184 10.046c.748 2.807 2.723 8.384 2.723 8.384l.875-.246.635 1.24-13.793 5.099-.638-1.305s-2.38-7.49-3.338-11.746c-.687-3.046-.985-5.431-1.374-8.163-.382-2.681-.944-8.07-.944-8.07l-.537-1.716Z" style="display:inline;opacity:1;fill:#474a45;fill-opacity:1;stroke:#333531;stroke-width:1.0715;stroke-linejoin:round;stroke-dasharray:none;stroke-opacity:1"/><path d="M15.814 214.521s.296 5.24.688 7.83c.445 2.933 1.128 5.83 1.881 8.7.93 3.547 3.255 10.51 3.255 10.51" style="display:inline;fill:#474a45;fill-opacity:1;stroke:#333531;stroke-width:1.0715;stroke-linecap:round;stroke-linejoin:round;stroke-dasharray:none;stroke-opacity:1"/><path d="M87.043 205.476v4.317h-6.315v-4.317z" style="fill:#404142;fill-opacity:1;stroke:#313335;stroke-width:1.0715;stroke-linejoin:round;stroke-dasharray:none;stroke-opacity:1"/><path d="m80.728 205.476-1.667-2.178v-1.931H21.097l-.013 1.135H-14.98l-4.526-.234-.837-.404-6.188.115s-.075 7.042.129 10.556c.236 4.084 1.295 11.28 1.295 11.28s1.585-.226 2.748-.284c2.229-.11 7.424-.06 7.424-.06s2.215-3.515 3.732-4.883c1.18-1.065 2.147-1.974 3.686-2.371 1.804-.466 3.526-.333 5.57-.108 2.33.256 7.034-.364 7.034-.364L18.63 214.2l.665-1.953h26.31l-.107-5.762 4.507-.021.283-.91h3.058l.468.91h.815l.505-.902h2.833l.46.797h.892l.446-.773h2.773l.541.938h.607l.383 1.43h16.66z" style="opacity:1;fill:#424447;fill-opacity:1;stroke:#313335;stroke-width:1.0715;stroke-miterlimit:4.8;stroke-dasharray:none;stroke-opacity:1"/><path d="M79.061 201.367v-1.27l-.455-1.7h-7.75v2.97z" style="opacity:1;fill:#434546;fill-opacity:1;stroke:#313335;stroke-width:1.0715;stroke-dasharray:none;stroke-opacity:1"/><path fill="none" d="M74.828 199.28v1.204" style="display:inline;fill:#494949;fill-opacity:0;stroke:#575757;stroke-width:.694601;stroke-linecap:square;stroke-linejoin:miter;stroke-dasharray:none;stroke-opacity:1"/><path d="m31.314 194.306-5.785-.035s-.127-.331-.212-.486a.64.64 0 0 0-.607-.349c-.258.014-.406.073-.683.501-.097.15-.102.066-.334.061-.191-.004-.334-.061-.334-.061v-1.335h-.607v-.562h-.212v1.67s-.294-.004-.42.048c-.157.062-.304.14-.354.3-.045.143-.026.302-.06.448-.054.22-.176.319-.274.523-.153.323-.127.647-.121 1.04l.019 1.312.754-1.551h1.382l.166-.967h7.242z" style="display:inline;opacity:1;fill:#434546;fill-opacity:1;stroke:#313335;stroke-width:.911719;stroke-dasharray:none;stroke-opacity:1"/><path d="M80.728 207.954v5.012l-.503 1.183v1.305h-2.48v.774h-1.804v-.773h-1.655v.773h-1.802v-.773h-1.84v-.043l-7.116.055h-1.32v.948h-1.796v-.93h-1.604l.005.93H57v-.943h-1.6l-.001.943h-1.81v-.968l-1.033-.021-1.121.026-1.307-1.514h-1.093v-1.314l-.789-.447-2.641.07h-5.516v5.988l-.624.361-.634.634s-1.077 6.698-1.832 10.551c-.324 1.652-2.451.09-3.956-.664-.712-.356-1.29-.81-1.86-1.31a7.6 7.6 0 0 1-1.008-1.095c-.423-.55-.928-1.091-1.116-1.76-.126-.447-.076-.94.021-1.394.53-2.482 2.36-4.542 3.005-6.997.084-.32.147-.658.107-.987-.04-.332-.176-.654-.343-.944-.178-.308-.447-.554-.687-.815a35 35 0 0 0-1.095-1.095l-.472-.472H19.294h26.31l-.107-5.762 4.507-.021.283-.91h3.058l.468.91h.815l.505-.902h2.833l.46.797h.892l.446-.773h2.773l.541.938h.607l.383 1.43z" style="opacity:1;fill:#4e5051;fill-opacity:1;stroke:#323334;stroke-width:1.0715;stroke-linejoin:round;stroke-dasharray:none;stroke-opacity:1"/><path fill="none" d="m70.68 209.717 2.558 4.237h-3.535l-2.558-4.237h-3.89l2.558 4.237h-4.074l-2.558-4.237h-3.854l2.561 4.237" style="display:inline;fill:#434546;fill-opacity:0;stroke:#313335;stroke-width:1.12433;stroke-linecap:round;stroke-linejoin:miter;stroke-dasharray:none;stroke-opacity:1"/><path d="M49.035 213.28v3.216s-.196.587-.362.837c-.233.352-.54.667-.858.944-.22.192-.751.451-.751.451H40.64l-.552-.494v-5.987l8.157-.07z" style="opacity:1;fill:none;fill-opacity:1;stroke:#313335;stroke-width:1.0715;stroke-dasharray:none;stroke-opacity:1"/><path d="m45.604 212.247-.214.708h-.644s-.953 1.373-1.31 2.125a1.3 1.3 0 0 0-.128.371c-.028.211.008.427.043.637.036.22.1.434.172.644.06.176.124.353.214.515.091.163.295.536.113.672-.174.13-.427-.136-.585-.286-.16-.152-.226-.38-.322-.579a5 5 0 0 1-.236-.58c-.065-.202-.15-.414-.15-.622 0-.23-.08-.482-.043-.708.08-.486.575-1.404.575-1.404v-.763h-1.648l-.15-.73z" style="opacity:1;fill:#313335;fill-opacity:1;stroke:#313335;stroke-width:.441761;stroke-dasharray:none;stroke-opacity:1"/><path d="M23.845 240.736 11.28 245.44" style="opacity:1;fill:#434546;fill-opacity:1;stroke:#333531;stroke-width:1.0715;stroke-dasharray:none;stroke-opacity:1"/><path d="m5.238 217.43-.623-.505s-.077.32-.19.43c-.114.111-.288.142-.443.182-.122.031-.376.043-.376.043s-.573 1.194-.826 1.77c-.044.1-.117-.133-.137-.24-.017-.093-.053-.23-.07-.322-.028-.14.075-.33.126-.558.124-.547.285-.661.285-.661s-.3-.056-.397-.161c-.156-.171-.204-.665-.204-.665l-1.137.064-.414-.674 4.255-.388z" style="opacity:1;fill:#313335;fill-opacity:1;stroke:#313335;stroke-width:.441761;stroke-dasharray:none;stroke-opacity:1"/><path d="m70.644 215.456-.71 1.228h-1.891v1.634h2.518v13.792h-6.974v-13.792h2.703v-1.634h-1.905c-.306-.385-.595-.836-.857-1.228z" style="display:inline;opacity:1;fill:#484744;fill-opacity:1;stroke:#343432;stroke-width:1.0715;stroke-linejoin:round;stroke-dasharray:none;stroke-opacity:1"/><path d="M70.348 232.11v.99h.538v.636h-7.63v-.635h.544v-.99z" style="opacity:1;fill:#484744;fill-opacity:1;stroke:#343432;stroke-width:1.0715;stroke-linejoin:round;stroke-dasharray:none;stroke-opacity:1"/><path d="M45.497 206.485H22.34s-.29.502-.551.767c-.316.318-.969.508-.969.508l-43.584.134.09 3.678h9.698l.756-.437h9.306s.143.027.206.063c.07.04.13.11.183.162.06.06.085.149.128.223l.128.218 20.552-.002.471-.126h26.833z" style="display:inline;fill:#525455;fill-opacity:1;stroke:#323334;stroke-width:1.0715;stroke-linecap:round;stroke-linejoin:round;stroke-dasharray:none;stroke-opacity:1"/><path d="M-22.764 207.894h2.675s.46.012.648.128c.178.11.428.343.534.46.176.196.303.758.258 1.147a1.86 1.86 0 0 1-.495 1.023c-.225.241-.858.492-.858.492h-2.677z" style="display:inline;opacity:1;fill:#404040;fill-opacity:1;stroke:#333;stroke-width:.629746;stroke-dasharray:none;stroke-opacity:1"/><path d="M50.004 206.463s.275 1.629.275 2.878c0 .224.557.376.557.376h24.838s.733-.132 1.005-.362c.215-.182.324-.47.413-.738.07-.212.09-.663.09-.663" style="display:inline;fill:none;fill-opacity:1;stroke:#313335;stroke-width:1.0715;stroke-linecap:round;stroke-linejoin:round;stroke-dasharray:none;stroke-opacity:1"/><path d="M-2.227 213.448v-1.108s.008-.366-.042-.54a1 1 0 0 0-.21-.39c-.111-.122-.247-.27-.411-.274-1.644-.035-8.975 0-8.975 0l-.994 2.271z" style="display:inline;fill:#3d3d3d;fill-opacity:1;stroke:#333;stroke-width:.469961;stroke-linecap:round;stroke-linejoin:round;stroke-dasharray:none;stroke-opacity:1"/><circle cx="-47.918503" cy="209.34059" r="1.3399496" style="opacity:1;fill:#444747;fill-opacity:1;stroke:#323434;stroke-width:.510093;stroke-dasharray:none;stroke-opacity:1" transform="scale(-1 1)"/><circle cx="-77.530266" cy="199.88202" r="0.4672114" style="display:inline;fill:#444747;fill-opacity:1;stroke:#323434;stroke-width:.365627;stroke-dasharray:none;stroke-opacity:1" transform="scale(-1 1)"/><ellipse cx="-37.661564" cy="209.0139" rx="0.24829532" ry="0.24829535" style="display:inline;fill:#c32121;fill-opacity:1;stroke:#c32121;stroke-width:.0949321;stroke-dasharray:none;stroke-opacity:1" transform="scale(-1 1)"/><ellipse cx="-37.862873" cy="210.22829" rx="0.24829532" ry="0.24829535" style="display:inline;fill:#656565;fill-opacity:1;stroke:#656565;stroke-width:.0945205;stroke-dasharray:none;stroke-opacity:1" transform="scale(-1 1)"/><ellipse cx="3.3341362" cy="212.18718" rx="0.63961267" ry="0.63961256" style="display:inline;fill:#444747;fill-opacity:1;stroke:#323434;stroke-width:.243488;stroke-dasharray:none;stroke-opacity:1" transform="scale(-1 1)"/><ellipse cx="20.427986" cy="209.51891" rx="0.99428058" ry="0.99428046" style="display:inline;fill:#444747;fill-opacity:1;stroke:#323434;stroke-width:.378505;stroke-dasharray:none;stroke-opacity:1" transform="scale(-1 1)"/><path d="m-20.343 201.864-.396 4.935s-.084.206-.148.296a1.3 1.3 0 0 1-.355.354 1.7 1.7 0 0 1-.68.222 1.3 1.3 0 0 1-.531-.044c-.105-.035-.11-.125-.163-.222-.138-.25-.118-.813-.118-.813h-3.74v-4.614z" style="display:inline;opacity:1;fill:#434546;fill-opacity:1;stroke:#313335;stroke-width:1.0715;stroke-linejoin:round;stroke-dasharray:none;stroke-opacity:1"/><path d="m-22.734 206.592.059 4.98.296 4.817.667 6.501v.503l-3.395.421-.494-3.603-.596-5.887-.27-7.067-.008-.665z" style="display:inline;opacity:1;fill:#393939;fill-opacity:1;stroke:#303030;stroke-width:1.0715;stroke-dasharray:none;stroke-opacity:1"/><path d="M38.867 208.513c1.276.056 2.34.029 3.56.044.276.004.534.221.695.444.186.255.265.602.237.916-.023.259-.131.536-.325.709-.213.19-.542.354-.813.266-1.08-.35-1.126-.368-3.517-1.182-.123-.042-.123-.178-.133-.37-.007-.142-.03-.293.015-.428.052-.154.118-.406.28-.399z" style="display:inline;fill:#434546;stroke:#313335;stroke-width:.529176;stroke-dasharray:none"/><path d="m40.417 209.325-1.194-.14" style="display:inline;fill:#434546;stroke:#5d5d5d;stroke-width:.529175;stroke-linecap:round;stroke-dasharray:none;stroke-opacity:1"/><path d="m79.895 204.387-15.206.063v3.504h15.227z" style="display:inline;fill:#404040;fill-opacity:1;stroke:#333;stroke-width:.789533;stroke-linecap:round;stroke-linejoin:miter;stroke-dasharray:none;stroke-opacity:1"/><path fill="none" stroke="#333" stroke-miterlimit="3.99393" stroke-width="0.594802" d="M77.156 203.03h-1.883c-.347 0-.629.167-.629.373 0 .205.282.372.63.373h1.882c.348 0 .629-.168.629-.373s-.282-.372-.629-.372z" style="fill:#434546;fill-opacity:0"/><path fill="none" stroke="#333" stroke-miterlimit="3.99393" stroke-width="0.594802" d="M72.515 203.03h-1.883c-.347 0-.629.167-.628.373 0 .205.281.372.628.373h1.883c.348 0 .629-.168.63-.373 0-.205-.283-.372-.63-.372zm-4.641 0h-1.883c-.347 0-.628.167-.628.373 0 .205.282.372.629.373h1.882c.348 0 .629-.168.63-.373 0-.205-.283-.372-.63-.372zm-20.546-8.082h-1.883c-.347 0-.629.167-.628.373 0 .205.281.372.628.373h1.883c.348 0 .629-.168.63-.373 0-.205-.283-.372-.63-.373z" style="display:inline;fill:#434546;fill-opacity:0"/><path fill="none" d="M78.214 204.494v3.46l-1.692-.016v-3.535H74.83v3.552h-1.692v-3.538h-1.692v3.538h-1.691v-3.524h-1.692v3.524H66.37v-3.509" style="fill:#434546;fill-opacity:0;stroke:#333;stroke-width:.789533;stroke-linecap:round;stroke-linejoin:miter;stroke-dasharray:none;stroke-opacity:1"/><path fill="none" d="M80.225 214.15H50.311" style="fill:#434546;fill-opacity:0;stroke:#313335;stroke-width:.789533;stroke-linecap:round;stroke-linejoin:miter;stroke-dasharray:none;stroke-opacity:1"/><g transform="translate(-41.673 90.202)scale(.93992)"><path d="M92.796 110.713v1.353H80.892v-4.934l.375-1.918s.373-.512.538-.783c.228-.378.466-.756.62-1.17.11-.3.159-.62.21-.935.044-.27.075-.545.082-.819a4.4 4.4 0 0 0-.036-.678c-.031-.24-.14-.47-.152-.713-.008-.192.07-.573.07-.573h7.122l.842 4.385s.074.307.175.42c.11.125.275.196.433.246.149.048.467.047.467.047h3.345s.605.094.884.213c.292.125.542.323.8.515.23.174.42.403.584.64.167.241.316.502.398.784.081.282.094.583.081.877a2.9 2.9 0 0 1-.163.9 2.7 2.7 0 0 1-.515.83 2.7 2.7 0 0 1-.655.515 3.5 3.5 0 0 1-.771.315c-.194.058-.396.087-.597.117-.252.038-.76.082-.76.082v0z" style="display:inline;fill:#454545;fill-opacity:1;stroke:#333;stroke-width:.97;stroke-linecap:square;stroke-linejoin:round;stroke-dasharray:none;stroke-opacity:1"/><circle cx="-84.404465" cy="106.32356" r="1.4256001" style="display:inline;fill:#444747;fill-opacity:1;stroke:#323434;stroke-width:.443;stroke-dasharray:none;stroke-opacity:1" transform="scale(-1 1)"/><circle cx="-84.404465" cy="106.32356" r="0.72705603" style="display:inline;fill:#373939;fill-opacity:1;stroke:#373939;stroke-width:.276776;stroke-dasharray:none;stroke-opacity:1" transform="scale(-1 1)"/><path d="m84.019 105.707.726 1.259" style="fill:#000;fill-opacity:1;stroke:#333;stroke-width:.17;stroke-linecap:round;stroke-linejoin:round;stroke-dasharray:none;stroke-opacity:1"/><g style="display:inline" transform="translate(5.91 1.448)"><circle cx="-84.404465" cy="106.32356" r="1.4256001" style="display:inline;fill:#444747;fill-opacity:1;stroke:#323434;stroke-width:.443;stroke-dasharray:none;stroke-opacity:1" transform="scale(-1 1)"/><circle cx="-84.404465" cy="106.32356" r="0.72705603" style="display:inline;fill:#373939;fill-opacity:1;stroke:#373939;stroke-width:.276776;stroke-dasharray:none;stroke-opacity:1" transform="scale(-1 1)"/><path d="m84.357 105.61.05 1.453" style="fill:#000;fill-opacity:1;stroke:#333;stroke-width:.17;stroke-linecap:round;stroke-linejoin:round;stroke-dasharray:none;stroke-opacity:1"/></g><g style="display:inline" transform="translate(-10.451 -25.166)scale(1.2482)"><circle cx="-84.404465" cy="106.32356" r="1.4256001" style="display:inline;fill:#77653d;fill-opacity:1;stroke:#39372d;stroke-width:.160231;stroke-dasharray:none;stroke-opacity:1" transform="scale(-1 1)"/><circle cx="-84.404465" cy="106.32356" r="1.0366081" style="display:inline;fill:#414343;fill-opacity:1;stroke:#414343;stroke-width:.39501;stroke-dasharray:none;stroke-opacity:1" transform="scale(-1 1)"/><path d="m84.465 105.286-.18 2.064" style="fill:#000;fill-opacity:1;stroke:#3a3a3a;stroke-width:.242622;stroke-linecap:round;stroke-linejoin:round;stroke-dasharray:none;stroke-opacity:1"/></g><circle cx="-88.879288" cy="111.03555" r="0.43672699" style="display:inline;fill:#444747;fill-opacity:1;stroke:#323434;stroke-width:.16642;stroke-dasharray:none;stroke-opacity:1" transform="scale(-1 1)"/><circle cx="-81.961998" cy="110.21024" r="0.43672699" style="display:inline;fill:#444747;fill-opacity:1;stroke:#323434;stroke-width:.16642;stroke-dasharray:none;stroke-opacity:1" transform="scale(-1 1)"/><path d="M82.492 106.99s-.088-.39-.09-.512c-.008-.272.02-.525.073-.791.043-.213.216-.49.216-.49" style="fill:none;fill-opacity:1;stroke:#6f6f6f;stroke-width:.243;stroke-linecap:round;stroke-linejoin:round;stroke-dasharray:none;stroke-opacity:1;marker-end:url(#a)"/><path d="M88.645 108.846s-.173-.36-.204-.48a3.5 3.5 0 0 1-.105-.787c-.007-.217.1-.526.1-.526" style="display:inline;fill:none;fill-opacity:1;stroke:#6f6f6f;stroke-width:.243;stroke-linecap:round;stroke-linejoin:round;stroke-dasharray:none;stroke-opacity:1;marker-end:url(#b)"/><path d="M84.83 111.82v-.778h.713l1.273-.876h5.06l.194-.112.162-.161.05-.19v-2.485l-.083-.388-.124-.368-.265-.472-.417-.554-.587-1.023" style="fill:none;fill-opacity:1;stroke:#333;stroke-width:.643;stroke-linecap:round;stroke-linejoin:round;stroke-dasharray:none;stroke-opacity:1"/><path d="m92.231 110.162.565.55" style="fill:none;fill-opacity:1;stroke:#333;stroke-width:.943;stroke-linecap:round;stroke-linejoin:round;stroke-dasharray:none;stroke-opacity:1"/><path d="M87.536 101.385h-2.82v2.29h2.828v-.504h-2.373l1.955-.6-1.955-.748h2.365zm-.41 1.187h-2.41" style="fill:none;fill-opacity:1;stroke:#7d8282;stroke-width:.2;stroke-linecap:round;stroke-linejoin:round;stroke-dasharray:none;stroke-opacity:1" transform="matrix(1.03533 0 0 1.01377 -2.552 -1.72)"/></g><path d="M5.504 207.715v-3.029h12.55l.67.363.003 2.303-.66.361z" style="fill:#8b9090;fill-opacity:1;stroke:#323434;stroke-width:.725377;stroke-linecap:round;stroke-linejoin:round;stroke-dasharray:none;stroke-opacity:1"/><path d="M11.075 205.045h1.813l-.001 2.307h-1.812z" style="display:inline;fill:#7f8484;fill-opacity:1;stroke:none;stroke-width:.650714;stroke-linecap:round;stroke-linejoin:round;stroke-dasharray:none;stroke-opacity:1"/><path d="M5.984 207.714h11.603v.526h.994l-.002 3.31H4.991l-.002-3.312.995.001z" style="fill:#424447;fill-opacity:1;stroke:#323334;stroke-width:.725377;stroke-linecap:round;stroke-linejoin:round;stroke-dasharray:none;stroke-opacity:1"/><path d="M11.154 208.465v2.308h1.717v-2.308z" style="fill:#545557;fill-opacity:1;stroke:#545557;stroke-width:.362689;stroke-linecap:round;stroke-linejoin:round;stroke-dasharray:none;stroke-opacity:1"/><path d="M11.387 208.778v1.682h1.251v-1.682z" style="display:inline;fill:#67686c;fill-opacity:1;stroke:#616265;stroke-width:.2644;stroke-linecap:round;stroke-linejoin:round;stroke-dasharray:none;stroke-opacity:1"/><path d="M26.316 203.312h2.4l.18.27h31.547-34.097z" style="fill:#8b9090;fill-opacity:1;stroke:#595959;stroke-width:.362689;stroke-linecap:round;stroke-linejoin:round;stroke-dasharray:none;stroke-opacity:1"/><path d="M57.384 203.581h2.699" style="fill:#67686c;fill-opacity:1;stroke:#545457;stroke-width:.725377;stroke-linecap:round;stroke-linejoin:miter;stroke-miterlimit:11.2;stroke-dasharray:none;stroke-opacity:1;paint-order:normal"/><path d="M58.029 203.672v-.542" style="fill:#67686c;fill-opacity:1;stroke:#3f3f41;stroke-width:.544034;stroke-linecap:square;stroke-linejoin:round;stroke-dasharray:none;stroke-opacity:1"/><path d="M59.532 203.672v-.542" style="display:inline;fill:#67686c;fill-opacity:1;stroke:#3f3f41;stroke-width:.544034;stroke-linecap:square;stroke-linejoin:round;stroke-dasharray:none;stroke-opacity:1"/><path d="M60.316 202.877h-.808l-.188-.72-1.02-.003-.293.733-.876-.01v-.49s.573-1.464.995-2.127c.404-.634 1.453-1.74 1.453-1.74s1.086-.042 1.048.128c-.084.366-.47 1.022-.52 1.357a5.1 5.1 0 0 0 0 1.56c.077.52.209 1.312.209 1.312" style="fill:#535357;fill-opacity:1;stroke:#3f3f41;stroke-width:.534716;stroke-linecap:round;stroke-linejoin:round;stroke-miterlimit:11.2;stroke-dasharray:none;stroke-opacity:1;paint-order:normal"/><ellipse cx="59.04388" cy="200.70145" rx="0.14633228" ry="0.13739938" style="fill:#3f3f41;fill-opacity:1;stroke:#3f3f41;stroke-width:.181345;stroke-linecap:round;stroke-linejoin:round;stroke-miterlimit:11.2;stroke-dasharray:none;stroke-opacity:1;paint-order:normal"/></g></svg>