<svg xmlns="http://www.w3.org/2000/svg" width="72" height="49.846001" viewBox="0 0 19.05 13.188422"><rect width="18.338186" height="12.476645" x="0.35590726" y="0.35590726" rx="1.0990382" ry="1.0990382" style="fill:#512643;fill-opacity:1;stroke:#440c34;stroke-width:.711814;stroke-linecap:round;stroke-linejoin:round;stroke-miterlimit:10;stroke-opacity:1"/><circle cx="16.851919" cy="2.1980762" r="0.73269218" style="fill:#512643;fill-opacity:1;stroke:#440c34;stroke-width:.366346;stroke-linecap:round;stroke-linejoin:round;stroke-miterlimit:4;stroke-dasharray:none;stroke-opacity:1"/><circle cx="16.851919" cy="10.990382" r="0.73269218" style="fill:#512643;fill-opacity:1;stroke:#440c34;stroke-width:.366346;stroke-linecap:round;stroke-linejoin:round;stroke-miterlimit:4;stroke-dasharray:none;stroke-opacity:1"/><circle cx="2.1980762" cy="10.990382" r="0.73269218" style="fill:#512643;fill-opacity:1;stroke:#440c34;stroke-width:.366346;stroke-linecap:round;stroke-linejoin:round;stroke-miterlimit:4;stroke-dasharray:none;stroke-opacity:1"/><circle cx="2.1980762" cy="2.1980762" r="0.73269218" style="fill:#512643;fill-opacity:1;stroke:#440c34;stroke-width:.366346;stroke-linecap:round;stroke-linejoin:round;stroke-miterlimit:4;stroke-dasharray:none;stroke-opacity:1"/><path d="M6.11 9.756h-.255l.345-.911h.26l.345.91h-.253l-.059-.162h-.325zm.116-.332h.209l-.105-.306Zm1.029-.17q-.082 0-.17.04v.462h-.227v-.69h.201l.013.084q.112-.097.235-.097h.058v.202Zm.663-.201q.106 0 .163.078.06-.04.129-.059.07-.02.125-.02h.013q.088 0 .142.054t.053.142v.508h-.228v-.469q0-.02-.013-.032t-.032-.013h-.007q-.058 0-.15.026v.488h-.227v-.469q0-.02-.013-.032t-.033-.013h-.006q-.059 0-.15.026v.488h-.228v-.69h.202l.013.065q.061-.04.125-.059.065-.02.11-.02zm1.445.507q0 .098-.056.154-.054.055-.152.055h-.3q-.097 0-.153-.055-.055-.056-.055-.154v-.299q0-.098.055-.152.056-.056.154-.056h.299q.098 0 .152.056.056.054.056.152zm-.228-.28q0-.051-.052-.051h-.156q-.052 0-.052.052v.26q0 .052.052.052h.156q.052 0 .052-.052zm.742-.025q-.082 0-.169.039v.462H9.48v-.69h.202l.013.084q.112-.097.235-.097h.058v.202Zm.606-.41h.546q.137 0 .198.062.063.061.063.198v.13q0 .137-.063.2-.06.06-.198.06h-.312v.26h-.234zm.572.26q0-.078-.078-.078h-.26v.286h.26q.078 0 .078-.078zm.625-.013v.664h-.228v-.488h-.097v-.176Zm-.228-.26h.228v.182h-.228zm.625.384q-.052 0-.052.052v.071h.222v-.071q0-.052-.053-.052zm.371.527q-.251.026-.455.026-.089 0-.142-.054-.054-.053-.054-.142v-.312q0-.098.055-.152.056-.056.154-.056h.26q.098 0 .152.056.056.054.056.152v.24h-.449v.053q0 .02.013.033t.033.013q.129 0 .377-.02zm.54-.488q-.082 0-.169.039v.462h-.228v-.69h.202l.013.084q.112-.097.235-.097h.058v.202zm.788.488q-.243.026-.43.026-.088 0-.141-.054-.054-.053-.054-.142v-.299q0-.098.055-.152.056-.056.153-.056h.417v.176h-.345q-.052 0-.052.052v.253q0 .02.013.033t.033.013q.117 0 .351-.02zm.39-.651v.664h-.227v-.488h-.098v-.176Zm-.227-.26h.227v.182h-.227zm.742.41q-.07 0-.157.026v.488h-.227v-.69h.201l.013.065q.062-.04.125-.059.065-.02.11-.02h.058q.089 0 .142.054.054.054.054.142v.508h-.228v-.469q0-.02-.013-.032t-.033-.013zm.885.462q-.126.026-.221.026h-.046q-.089 0-.142-.054-.053-.053-.053-.142v-.26q0-.098.054-.152.056-.056.154-.056h.482v.729q0 .088-.054.142-.053.053-.142.053-.204 0-.455-.026v-.17q.248.02.377.02.02 0 .033-.013t.013-.032zm-.156-.15q.082 0 .156-.013v-.3h-.182q-.053 0-.053.053v.214q0 .02.014.033.013.013.032.013z" aria-label="Armor Piercing" style="font-size:1.30168px;font-family:&quot;Russo One&quot;;-inkscape-font-specification:&quot;Russo One, Normal&quot;;fill:#440c34;stroke:#440c34;stroke-width:0"/><path d="M4.415 8.646V4.82l-.807.28-.352-.807 1.3-.562H5.68v4.916Zm5.62-3.37q0 .596-.506 1.032-.155.133-.338.266l-1.51 1.09h2.353v.982H6.241V7.312L8.77 5.486v-.351q0-.422-.421-.422H6.382V3.73h2.247q.738 0 1.068.337.337.33.337 1.068zm.42 2.317h1.265v1.053h-1.264zm1.546-3.863h3.793v.983l-1.616 3.933h-1.405l1.686-3.933h-2.458z" aria-label="12.7" style="font-size:7.02362px;font-family:&quot;Russo One&quot;;-inkscape-font-specification:&quot;Russo One, Normal&quot;;fill:#440c34;stroke:#440c34;stroke-width:0"/></svg>