<svg xmlns="http://www.w3.org/2000/svg" xml:space="preserve" width="123mm" height="65mm" viewBox="0 0 123.00001 65"><defs><marker id="a" markerHeight="0.40000001" markerWidth="0.40000001" orient="auto-start-reverse" preserveAspectRatio="xMidYMid" refX="0" refY="0" style="overflow:visible" viewBox="0 0 1 1"><path d="M-.211-4.106 6.21-.894a1 1 90 0 1 0 1.788L-.21 4.106A1.236 1.236 31.717 0 1-2 3v-6A1.236 1.236 148.283 0 1-.211-4.106" style="fill:context-stroke;fill-rule:evenodd;stroke:none" transform="scale(.7)"/></marker><marker id="b" markerHeight="0.40000001" markerWidth="0.40000001" orient="auto-start-reverse" preserveAspectRatio="xMidYMid" refX="0" refY="0" style="overflow:visible" viewBox="0 0 1 1"><path d="M-.211-4.106 6.21-.894a1 1 90 0 1 0 1.788L-.21 4.106A1.236 1.236 31.717 0 1-2 3v-6A1.236 1.236 148.283 0 1-.211-4.106" style="fill:context-stroke;fill-rule:evenodd;stroke:none" transform="scale(.7)"/></marker></defs><g style="display:inline" transform="rotate(-30 -111.687 91.298)scale(.92505)"><path d="m103.14 136.776 3.65-7.039-16.351-9.44.178-.643-1.347-.778-2.834 1.127-7.75-4.475s-1.28.517-1.889 1.452c-.721 1.11-1.986 3.44-1.986 3.44l5.036 2.908s1.23-2.328 2.277-3.64c.75-.94 2.646.016 2.646.016l17.72 10.231s.533.536.665.878c.11.284.082.907.082.907l-2.213 3.834z" style="display:inline;opacity:1;fill:#fff;fill-opacity:1;stroke:#b4b4b4;stroke-width:.216205;stroke-dasharray:none;stroke-opacity:1"/><path d="M28.31 94.362s-2.158-1.627-3.36-1.432c-.563.092-1.049.614-1.28 1.136-1.261 2.841-2.498 5.884-4.409 8.583-2.524 3.567-5.423 6.882-8.691 10.316-.144.151.04.47.081.62.064.223.114.395.282.443 2.033.581 6.579 2.213 6.579 2.213l5.038-11.614z" style="opacity:1;fill:#fff;fill-opacity:1;stroke:#b4b4b4;stroke-width:.216205;stroke-dasharray:none;stroke-opacity:1"/><path d="M64.94 131.269s-2.63 5.398-3.663 8.19a124 124 0 0 0-3.492 10.919c-.843 3.128-2.044 9.615-2.044 9.615l.982.25-.079 1.551-16.163-2.766.112-1.616s1.878-8.559 3.325-13.203c1.036-3.325 2.078-5.794 3.225-8.65 1.126-2.802 3.587-8.318 3.587-8.318l.439-1.957z" style="display:inline;opacity:1;fill:#fff;fill-opacity:1;stroke:#b4b4b4;stroke-width:.216205;stroke-linejoin:round;stroke-dasharray:none;stroke-opacity:1"/><path d="m136.037 161.06-2.407 4.169-6.098-3.521 2.407-4.168z" style="fill:#fff;fill-opacity:1;stroke:#b4b4b4;stroke-width:.216205;stroke-linejoin:round;stroke-dasharray:none;stroke-opacity:1"/><path d="m129.939 157.54-.395-3.033 1.076-1.865-55.975-32.317-.645 1.089-34.826-20.107-4.24-2.75-.584-.856-6.04-3.339s-3.998 6.759-5.76 10.265c-2.049 4.076-5.038 11.614-5.038 11.614s1.656.666 2.811 1.26c2.214 1.136 7.203 4.08 7.203 4.08s4.099-2.16 6.326-2.634c1.734-.37 3.174-.71 4.882-.235 2.002.556 3.59 1.645 5.439 3.001 2.108 1.547 6.996 3.57 6.996 3.57l13.938 6.058 1.731-1.515 25.408 14.67 3.109-5.625 4.363 2.493.782-.722 2.952 1.705-.055 1.14.787.455.99-.59 2.736 1.58v1.025l.861.498.862-.498 2.677 1.547v1.207l.586.338-.427 1.596 14.52 8.383 1.568.905zm.681-4.898.708-1.226.508-1.895-7.483-4.321-1.656 2.867z" style="opacity:1;fill:#fff;fill-opacity:1;stroke:#b4b4b4;stroke-width:.216205;stroke-dasharray:none;stroke-opacity:1"/><path d="m127.696 148.267-.671 1.162" style="display:inline;fill:#fff;fill-opacity:1;stroke:#b4b4b4;stroke-width:.216205;stroke-linecap:square;stroke-linejoin:miter;stroke-dasharray:none;stroke-opacity:1"/><path d="m88.449 119.203-5.567-3.26s.062-.39.066-.587a.71.71 0 0 0-.392-.675c-.256-.13-.433-.156-.939.103-.177.09-.134.007-.356-.127a1.1 1.1 0 0 1-.288-.246l.744-1.29-.586-.337.313-.543-.205-.118-.93 1.612s-.283-.167-.434-.188c-.185-.026-.371-.034-.509.093-.123.114-.193.278-.308.399-.174.183-.347.21-.556.353-.328.226-.483.553-.696.936l-.714 1.278 1.593-1.077 1.335.77.7-.841 6.994 4.037z" style="display:inline;opacity:1;fill:#fff;fill-opacity:1;stroke:#b4b4b4;stroke-width:.216205;stroke-dasharray:none;stroke-opacity:1"/><path d="m128.557 159.933-2.794 4.84-1.145.862-.728 1.26-2.395-1.382-.43.747-1.743-1.006.43-.747-1.598-.923-.43.747-1.74-1.004.43-.747-1.777-1.027-6.902-3.914-1.252-.776-.528.914-1.734-1.001.519-.898-1.55-.895-.514.901-1.75-1.01.525-.91-1.545-.893-.526.91-1.747-1.009.54-.935-.987-.596-1.097-.6-.418-2.191-1.055-.61.732-1.268-.513-.871-2.59-1.405-5.326-3.075-3.338 5.782h-.805l-.965.259s-4.774 5.867-7.652 9.168c-1.233 1.415-2.417-1.28-3.45-2.847-.489-.74-.793-1.502-1.065-2.302a8.5 8.5 0 0 1-.364-1.62c-.101-.767-.287-1.57-.096-2.321.127-.503.45-.95.798-1.335 1.896-2.101 4.81-3.07 6.802-5.081.26-.262.51-.554.654-.894.147-.343.195-.73.195-1.103 0-.396-.123-.783-.209-1.17-.125-.562-.446-1.667-.446-1.667l-.193-.72-9.947-5.743 25.407 14.67 3.11-5.625 4.363 2.492.78-.721 2.954 1.705-.056 1.14.788.455.99-.59 2.735 1.58v1.025l.862.498.861-.498 2.678 1.546v1.208l.586.338-.428 1.596z" style="opacity:1;fill:#fff;fill-opacity:1;stroke:#b4b4b4;stroke-width:.216205;stroke-linejoin:round;stroke-dasharray:none;stroke-opacity:1"/><path d="m94.982 147.406-1.793 3.105s-.516.458-.815.607c-.422.21-.894.343-1.356.433-.32.063-.976.017-.976.017l-6.203-3.582-.258-.784 3.339-5.782 7.916 4.48z" style="opacity:1;fill:#fff;fill-opacity:1;stroke:#b4b4b4;stroke-width:.216205;stroke-dasharray:none;stroke-opacity:1"/><path d="m92.246 144.495-.602.565-.622-.36s-1.685.796-2.449 1.323a1.4 1.4 0 0 0-.331.287c-.145.188-.23.416-.314.639a4.6 4.6 0 0 0-.193.717c-.04.204-.077.41-.08.617s-.015.682-.266.711c-.24.029-.337-.37-.405-.601-.07-.236-.007-.493.012-.74a5 5 0 0 1 .095-.69c.05-.233.087-.484.202-.685.127-.222.191-.51.353-.708.348-.424 1.339-1.035 1.339-1.035l.425-.737-1.591-.92.261-.787zm-36.896 15.38-14.757-2.463m9.782-30.418-.32-.834s-.253.266-.422.31c-.173.043-.359-.024-.53-.072-.136-.038-.387-.168-.387-.168s-1.22.834-1.785 1.249c-.098.071-.04-.194.002-.31.035-.098.077-.25.11-.349.053-.151.258-.277.435-.468.424-.46.643-.48.643-.48s-.259-.221-.293-.376c-.056-.253.174-.756.174-.756l-1.135-.572-.024-.883 4.326 1.998z" style="opacity:1;fill:#fff;fill-opacity:1;stroke:#b4b4b4;stroke-width:.216205;stroke-dasharray:none;stroke-opacity:1"/><path d="m114.637 161.553-1.37.792-1.827-1.054-.91 1.577 2.431 1.404-7.69 13.32-6.734-3.889 7.69-13.319 2.61 1.507.91-1.578-1.84-1.062-.172-1.612z" style="opacity:1;fill:#fff;fill-opacity:1;stroke:#b4b4b4;stroke-width:.216205;stroke-linejoin:round;stroke-dasharray:none;stroke-opacity:1"/><path d="m105.065 177.472-.552.957.52.3-.354.613-7.37-4.254.355-.614.526.304.552-.956z" style="opacity:1;fill:#fff;fill-opacity:1;stroke:#b4b4b4;stroke-width:.216205;stroke-linejoin:round;stroke-dasharray:none;stroke-opacity:1"/><path d="m54.962 112.948-1.837 3.183 4.399 2.54s.847-.146 1.224-.34c.353-.181.694-.344.892-.688.228-.396.342-.763.26-1.298-.044-.281-.473-.837-.473-.837z" style="display:inline;fill:#fff;fill-opacity:1;stroke:#b4b4b4;stroke-width:.216205;stroke-linecap:round;stroke-linejoin:miter;stroke-dasharray:none;stroke-opacity:1"/><path d="m55.072 113.726-1.346 2.33m3.452-.812-1.345 2.332" style="display:inline;fill:#fff;fill-opacity:1;stroke:#b4b4b4;stroke-width:.216205;stroke-linecap:square;stroke-linejoin:miter;stroke-dasharray:none;stroke-opacity:1"/><path d="m95.355 138.871-33.57-19.38s-.234.264-.376.367a2.3 2.3 0 0 1-.534.277c-.182.07-.567.144-.567.144L28.65 102.174l-1.965 3.601 9.366 5.408h.973l8.987 5.188s.123.106.164.175c.047.078.065.178.086.259.025.092 0 .191 0 .287l.002.281L66.11 128.83l.526.141 25.912 14.96z" style="display:inline;fill:#fff;fill-opacity:1;stroke:#b4b4b4;stroke-width:.216205;stroke-linecap:round;stroke-linejoin:round;stroke-dasharray:none;stroke-opacity:1"/><path d="m28.651 102.174 2.583 1.491s.439.269.555.486c.11.205.221.57.258.742.061.287-.13.9-.39 1.251-.251.34-.644.589-1.048.712-.352.107-1.103-.003-1.103-.003l-2.585-1.492z" style="display:inline;opacity:1;fill:#fff;fill-opacity:1;stroke:#b4b4b4;stroke-width:.216205;stroke-dasharray:none;stroke-opacity:1"/><path d="M99.719 141.363s-.643 1.726-1.339 2.932c-.125.216.328.674.328.674l23.986 13.848s.781.282 1.172.211c.31-.056.576-.274.811-.483.186-.164.455-.59.455-.59m-79.746-38.967.618-1.07s.212-.35.26-.545c.039-.16.05-.334.015-.495-.04-.18-.087-.398-.244-.493-1.568-.95-8.667-5.004-8.667-5.004l-2.226 1.64z" style="display:inline;fill:#fff;fill-opacity:1;stroke:#b4b4b4;stroke-width:.216205;stroke-linecap:round;stroke-linejoin:round;stroke-dasharray:none;stroke-opacity:1"/><circle cx="-154.71526" cy="75.773079" r="1.4941382" style="opacity:1;fill:#fff;fill-opacity:1;stroke:#b4b4b4;stroke-width:.216205;stroke-dasharray:none;stroke-opacity:1" transform="scale(-1 1)rotate(-30)"/><circle cx="-187.73445" cy="65.226074" r="0.52097362" style="display:inline;fill:#fff;fill-opacity:1;stroke:#b4b4b4;stroke-width:.216205;stroke-dasharray:none;stroke-opacity:1" transform="scale(-1 1)rotate(-30)"/><ellipse cx="-143.27806" cy="75.408791" rx="0.27686679" ry="0.27686682" style="display:inline;fill:#fff;fill-opacity:1;stroke:#b4b4b4;stroke-width:.216205;stroke-dasharray:none;stroke-opacity:1" transform="scale(-1 1)rotate(-30)"/><ellipse cx="-143.50252" cy="76.762932" rx="0.27686679" ry="0.27686682" style="display:inline;fill:#fff;fill-opacity:1;stroke:#b4b4b4;stroke-width:.216205;stroke-dasharray:none;stroke-opacity:1" transform="scale(-1 1)rotate(-30)"/><ellipse cx="-97.564957" cy="78.947227" rx="0.71321321" ry="0.71321309" style="display:inline;fill:#fff;fill-opacity:1;stroke:#b4b4b4;stroke-width:.216205;stroke-dasharray:none;stroke-opacity:1" transform="scale(-1 1)rotate(-30)"/><ellipse cx="-78.504105" cy="75.971916" rx="1.1086929" ry="1.1086928" style="display:inline;fill:#fff;fill-opacity:1;stroke:#b4b4b4;stroke-width:.216205;stroke-dasharray:none;stroke-opacity:1" transform="scale(-1 1)rotate(-30)"/><path d="m34.35 97.7-3.134 4.546s-.195.152-.307.203c-.17.076-.354.14-.54.144a1.9 1.9 0 0 1-.78-.164 1.4 1.4 0 0 1-.49-.34c-.081-.092-.035-.181-.033-.304.007-.319.34-.851.34-.851l-3.613-2.086 2.572-4.455z" style="display:inline;opacity:1;fill:#fff;fill-opacity:1;stroke:#b4b4b4;stroke-width:.216205;stroke-linejoin:round;stroke-dasharray:none;stroke-opacity:1"/><path d="m29.405 100.934-2.719 4.841-2.4 4.817-2.98 6.65-.28.485-3.514-1.486 1.531-3.754 2.708-6.017 3.68-6.975.362-.647z" style="display:inline;opacity:1;fill:#fff;fill-opacity:1;stroke:#b4b4b4;stroke-width:.216205;stroke-dasharray:none;stroke-opacity:1"/><path d="M87.821 137.133c1.202.766 2.244 1.332 3.414 2.028.264.157.392.511.424.816.036.35-.08.728-.283 1.016-.166.237-.425.445-.709.504-.311.065-.72.04-.933-.196-.848-.94-1.665-1.927-2.737-3.103 0 0-.02-.24.078-.43.072-.142.133-.3.253-.406.136-.12.34-.326.493-.229z" style="display:inline;fill:#fff;fill-opacity:1;stroke:#b4b4b4;stroke-width:.216205;stroke-dasharray:none;stroke-opacity:1"/><path d="m88.866 138.782-1.075-.802" style="display:inline;fill:#fff;fill-opacity:1;stroke:#b4b4b4;stroke-width:.216205;stroke-linecap:round;stroke-dasharray:none;stroke-opacity:1"/><path d="m129.741 156.023-14.718-8.417-1.954 3.385 14.704 8.49z" style="display:inline;fill:#fff;fill-opacity:1;stroke:#b4b4b4;stroke-width:.216205;stroke-linecap:round;stroke-linejoin:miter;stroke-dasharray:none;stroke-opacity:1"/><path d="M62.21 130.082s-2.635 5.225-3.7 7.945c-1.207 3.08-2.162 6.259-3.035 9.45-1.08 3.945-2.717 11.965-2.717 11.965" style="fill:#fff;fill-opacity:1;stroke:#b4b4b4;stroke-width:.216205;stroke-linecap:round;stroke-linejoin:round;stroke-dasharray:none;stroke-opacity:1"/><path stroke="#333" stroke-miterlimit="3.99393" stroke-width="0.663246" d="m127.853 153.186-1.818-1.05c-.335-.194-.7-.19-.815.009-.115.198.064.517.4.71l1.818 1.05c.335.194.7.189.815-.01.114-.197-.065-.516-.4-.71z" style="fill:#fff;fill-opacity:1;stroke:#b4b4b4;stroke-width:.216205;stroke-dasharray:none;stroke-opacity:1"/><path stroke="#333" stroke-miterlimit="3.99393" stroke-width="0.663246" d="m123.372 150.598-1.819-1.05c-.335-.193-.7-.189-.815.01-.114.198.065.516.4.71l1.818 1.05c.335.194.7.188.815-.01s-.065-.516-.4-.71z" style="display:inline;fill:#fff;fill-opacity:1;stroke:#b4b4b4;stroke-width:.216205;stroke-dasharray:none;stroke-opacity:1"/><path d="m128.058 155.19-1.929 3.34-1.624-.958 1.97-3.414-1.633-.943-1.98 3.43-1.634-.943 1.972-3.417-1.634-.943-1.972 3.416-1.634-.942 1.965-3.403-1.634-.943-1.965 3.402-1.634-.943 1.957-3.388m7.969 17.094L95.73 148.957m22.14 7.076v5.707l-3.412-1.97v-5.708l-3.757-2.17v5.708l-3.934-2.271v-5.707l-3.721-2.149v5.707" style="fill:#fff;fill-opacity:1;stroke:#b4b4b4;stroke-width:.216205;stroke-linecap:round;stroke-linejoin:miter;stroke-dasharray:none;stroke-opacity:1"/><g style="fill:#fff;fill-opacity:1;stroke:#b4b4b4;stroke-width:.206287;stroke-dasharray:none;stroke-opacity:1" transform="rotate(30 79.097 130.823)scale(1.04808)"><path d="M92.796 110.713v1.353H80.892v-4.934l.375-1.918s.373-.512.538-.783c.228-.378.466-.756.62-1.17.11-.3.159-.62.21-.935.044-.27.075-.545.082-.819a4.4 4.4 0 0 0-.036-.678c-.031-.24-.14-.47-.152-.713-.008-.192.07-.573.07-.573h7.122l.842 4.385s.074.307.175.42c.11.125.275.196.433.246.149.048.467.047.467.047h3.345s.605.094.884.213c.292.125.542.323.8.515.23.174.42.403.584.64.167.241.316.502.398.784.081.282.094.583.081.877a2.9 2.9 0 0 1-.163.9 2.7 2.7 0 0 1-.515.83 2.7 2.7 0 0 1-.655.515 3.5 3.5 0 0 1-.771.315c-.194.058-.396.087-.597.117-.252.038-.76.082-.76.082v0z" style="display:inline;fill:#fff;fill-opacity:1;stroke:#b4b4b4;stroke-width:.206287;stroke-linecap:square;stroke-linejoin:round;stroke-dasharray:none;stroke-opacity:1"/><g style="fill:#fff;fill-opacity:1;stroke:#b4b4b4;stroke-width:.206287;stroke-dasharray:none;stroke-opacity:1"><circle cx="-84.404465" cy="106.32356" r="1.4256001" style="display:inline;fill:#fff;fill-opacity:1;stroke:#b4b4b4;stroke-width:.206287;stroke-dasharray:none;stroke-opacity:1" transform="scale(-1 1)"/><circle cx="-84.404465" cy="106.32356" r="0.72705603" style="display:inline;fill:#fff;fill-opacity:1;stroke:#b4b4b4;stroke-width:.206287;stroke-dasharray:none;stroke-opacity:1" transform="scale(-1 1)"/><path d="m84.019 105.707.726 1.259" style="fill:#fff;fill-opacity:1;stroke:#b4b4b4;stroke-width:.206287;stroke-linecap:round;stroke-linejoin:round;stroke-dasharray:none;stroke-opacity:1"/></g><g style="display:inline;fill:#fff;fill-opacity:1;stroke:#b4b4b4;stroke-width:.206287;stroke-dasharray:none;stroke-opacity:1" transform="translate(5.91 1.448)"><circle cx="-84.404465" cy="106.32356" r="1.4256001" style="display:inline;fill:#fff;fill-opacity:1;stroke:#b4b4b4;stroke-width:.206287;stroke-dasharray:none;stroke-opacity:1" transform="scale(-1 1)"/><circle cx="-84.404465" cy="106.32356" r="0.72705603" style="display:inline;fill:#fff;fill-opacity:1;stroke:#b4b4b4;stroke-width:.206287;stroke-dasharray:none;stroke-opacity:1" transform="scale(-1 1)"/><path d="m84.357 105.61.05 1.453" style="fill:#fff;fill-opacity:1;stroke:#b4b4b4;stroke-width:.206287;stroke-linecap:round;stroke-linejoin:round;stroke-dasharray:none;stroke-opacity:1"/></g><g style="display:inline;fill:#fff;fill-opacity:1;stroke:#b4b4b4;stroke-width:.165268;stroke-dasharray:none;stroke-opacity:1" transform="translate(-10.451 -25.166)scale(1.2482)"><circle cx="-84.404465" cy="106.32356" r="1.4256001" style="display:inline;fill:#fff;fill-opacity:1;stroke:#b4b4b4;stroke-width:.165268;stroke-dasharray:none;stroke-opacity:1" transform="scale(-1 1)"/><circle cx="-84.404465" cy="106.32356" r="1.0366081" style="display:inline;fill:#fff;fill-opacity:1;stroke:#b4b4b4;stroke-width:.165268;stroke-dasharray:none;stroke-opacity:1" transform="scale(-1 1)"/><path d="m84.465 105.286-.18 2.064" style="fill:#fff;fill-opacity:1;stroke:#b4b4b4;stroke-width:.165268;stroke-linecap:round;stroke-linejoin:round;stroke-dasharray:none;stroke-opacity:1"/></g><circle cx="-88.879288" cy="111.03555" r="0.43672699" style="display:inline;fill:#fff;fill-opacity:1;stroke:#b4b4b4;stroke-width:.206287;stroke-dasharray:none;stroke-opacity:1" transform="scale(-1 1)"/><circle cx="-81.961998" cy="110.21024" r="0.43672699" style="display:inline;fill:#fff;fill-opacity:1;stroke:#b4b4b4;stroke-width:.206287;stroke-dasharray:none;stroke-opacity:1" transform="scale(-1 1)"/><path d="M82.492 106.99s-.088-.39-.09-.512c-.008-.272.02-.525.073-.791.043-.213.216-.49.216-.49" style="fill:#fff;fill-opacity:1;stroke:#b4b4b4;stroke-width:.206287;stroke-linecap:round;stroke-linejoin:round;stroke-dasharray:none;stroke-opacity:1;marker-end:url(#a)"/><path d="M88.645 108.846s-.173-.36-.204-.48a3.5 3.5 0 0 1-.105-.787c-.007-.217.1-.526.1-.526" style="display:inline;fill:#fff;fill-opacity:1;stroke:#b4b4b4;stroke-width:.206287;stroke-linecap:round;stroke-linejoin:round;stroke-dasharray:none;stroke-opacity:1;marker-end:url(#b)"/><path d="M84.83 111.82v-.778h.713l1.273-.876h5.06l.194-.112.162-.161.05-.19v-2.485l-.083-.388-.124-.368-.265-.472-.417-.554-.587-1.023m1.425 5.749.565.55" style="fill:#fff;fill-opacity:1;stroke:#b4b4b4;stroke-width:.206287;stroke-linecap:round;stroke-linejoin:round;stroke-dasharray:none;stroke-opacity:1"/><g style="fill:#fff;fill-opacity:1;stroke:#b4b4b4;stroke-width:.201355;stroke-dasharray:none;stroke-opacity:1"><path d="M87.536 101.385h-2.82v2.29h2.828v-.504h-2.373l1.955-.6-1.955-.748h2.365zm-.41 1.187h-2.41" style="fill:#fff;fill-opacity:1;stroke:#b4b4b4;stroke-width:.201355;stroke-linecap:round;stroke-linejoin:round;stroke-dasharray:none;stroke-opacity:1" transform="matrix(1.03533 0 0 1.01377 -2.552 -1.72)"/></g></g></g></svg>